<svg class="icon icon--social" aria-hidden="true" focusable="false" viewBox="0 0 24 24" fill="currentColor"><path d="M12 2.5a9.4 9.4 0 00-8.1 14.2L2.5 21.5l4.9-1.3A9.4 9.4 0 1012 2.5zm0 17.2a7.8 7.8 0 01-4-1.1l-.3-.2-2.9.8.8-2.8-.2-.3A7.8 7.8 0 1112 19.7zm4.3-5.8c-.2-.1-1.4-.7-1.6-.8s-.4-.1-.5.1l-.7.9c-.1.2-.3.2-.5.1a6.4 6.4 0 01-3.2-2.8c-.2-.4.2-.4.7-1.3.1-.2 0-.3 0-.4l-.7-1.7c-.2-.5-.4-.4-.5-.4h-.5a.9.9 0 00-.7.3 2.8 2.8 0 00-.9 2.1 5 5 0 001 2.6 11.3 11.3 0 004.3 3.8c1.6.7 2.3.7 3.1.6.5-.1 1.4-.6 1.6-1.2.2-.6.2-1.1.1-1.2l-.5-.2z"/></svg>